<?xml version="1.0" standalone="no"?>
<!DOCTYPE svg PUBLIC "-//W3C//DTD SVG 20010904//EN"
 "http://www.w3.org/TR/2001/REC-SVG-20010904/DTD/svg10.dtd">
<svg version="1.0" xmlns="http://www.w3.org/2000/svg"
 width="163.000000pt" height="163.000000pt" viewBox="0 0 163.000000 163.000000"
 preserveAspectRatio="xMidYMid meet">

<g transform="translate(0.000000,163.000000) scale(0.100000,-0.100000)"
fill="#000000" stroke="none">
<path d="M545 1375 c-114 -32 -212 -92 -296 -182 -172 -186 -207 -468 -87
-696 71 -134 235 -263 384 -301 87 -23 924 -24 924 -2 0 12 -70 15 -437 18
-423 4 -440 5 -503 27 -198 69 -335 214 -384 407 -34 133 -11 305 57 424 66
118 207 227 342 266 80 23 222 23 300 0 190 -56 336 -195 396 -378 19 -57 24
-94 24 -173 0 -145 -37 -245 -140 -381 -6 -9 -6 -17 2 -25 18 -18 67 41 114
136 87 175 87 360 -1 541 -74 154 -222 275 -390 319 -69 18 -238 18 -305 0z"/>
<path d="M635 1211 c-46 -28 -66 -56 -72 -99 -16 -121 130 -201 221 -121 73
63 64 168 -18 218 -41 26 -91 27 -131 2z m120 -37 c36 -36 47 -64 41 -98 -16
-86 -135 -111 -179 -37 -41 70 2 151 82 151 23 0 46 -7 56 -16z"/>
<path d="M320 898 c-90 -60 -88 -173 3 -228 67 -41 154 -12 191 63 24 50 15
98 -28 144 -27 29 -41 36 -82 40 -40 4 -56 0 -84 -19z m137 -42 c23 -20 28
-32 28 -71 0 -39 -5 -51 -28 -71 -62 -53 -153 -19 -164 63 -5 37 -2 45 25 73
40 39 97 42 139 6z"/>
<path d="M932 900 c-86 -53 -79 -191 12 -234 95 -45 196 16 196 119 0 106
-116 171 -208 115z m142 -45 c20 -19 26 -33 26 -68 0 -61 -35 -97 -94 -97 -87
0 -130 103 -70 164 36 36 100 36 138 1z"/>
<path d="M637 845 c-35 -33 -35 -74 -1 -114 51 -62 146 -26 146 54 0 77 -87
113 -145 60z m104 -36 c17 -33 -3 -69 -39 -69 -33 0 -52 16 -52 45 0 29 19 45
52 45 18 0 31 -7 39 -21z"/>
<path d="M624 591 c-85 -52 -80 -177 9 -231 38 -24 75 -25 122 -6 93 39 102
188 15 240 -38 22 -108 20 -146 -3z m134 -37 c51 -33 49 -124 -3 -158 -92 -60
-201 52 -134 138 37 48 84 54 137 20z"/>
</g>
</svg>
